<?xml version="1.0" encoding="utf-8"?>
<!-- Generator: Adobe Illustrator 14.0.0, SVG Export Plug-In . SVG Version: 6.00 Build 43363)  -->
<!DOCTYPE svg PUBLIC "-//W3C//DTD SVG 1.1//EN" "http://www.w3.org/Graphics/SVG/1.1/DTD/svg11.dtd">
<svg version="1.1" id="Layer_1" xmlns="http://www.w3.org/2000/svg" xmlns:xlink="http://www.w3.org/1999/xlink" x="0px" y="0px"
	 width="438.584px" height="438.584px" viewBox="0 0 438.584 438.584" enable-background="new 0 0 438.584 438.584"
	 xml:space="preserve">
<path fill="#D8D8D8" d="M0.954,216.87l436.675-1.836"/>
<circle fill="#DA0024" cx="219.292" cy="219.267" r="219.292"/>
<ellipse fill="none" stroke="#FDFDFD" stroke-width="2" cx="216.938" cy="220.267" rx="122.929" ry="218.341"/>
<path fill="none" stroke="#FDFDFD" stroke-width="2" d="M217.453,1.536l1.82,436.678"/>
<path fill="none" stroke="#FDFDFD" stroke-width="2" d="M0.644,222.053l437.849-0.37"/>
<path fill="#404040" d="M96.945,144.279h242.424c11.586,0,20.979,9.393,20.979,20.979v113.636c0,11.586-9.394,20.979-20.979,20.979
	H96.945c-11.586,0-20.979-9.394-20.979-20.979V165.258C75.966,153.672,85.359,144.279,96.945,144.279z"/>
<g enable-background="new    ">
	<path fill="#FFFFFF" d="M98.856,178.539h32.207c7.263,0,12.799,0.556,16.609,1.667c5.12,1.508,9.505,4.188,13.157,8.036
		c3.651,3.851,6.43,8.563,8.334,14.14c1.905,5.576,2.858,12.452,2.858,20.628c0,7.184-0.893,13.375-2.679,18.574
		c-2.183,6.351-5.298,11.489-9.347,15.419c-3.057,2.977-7.184,5.298-12.383,6.965c-3.89,1.23-9.089,1.846-15.597,1.846h-33.16
		V178.539z M116.478,193.303v57.807h13.157c4.92,0,8.473-0.277,10.656-0.834c2.857-0.714,5.229-1.925,7.114-3.632
		c1.884-1.705,3.423-4.514,4.614-8.424c1.19-3.908,1.786-9.236,1.786-15.984c0-6.746-0.595-11.926-1.786-15.538
		c-1.191-3.61-2.858-6.429-5.001-8.453s-4.862-3.394-8.156-4.108c-2.461-0.555-7.284-0.833-14.467-0.833H116.478z"/>
	<path fill="#FFFFFF" d="M187.143,265.813v-87.274h17.146l35.72,58.282v-58.282h16.371v87.274h-17.682L203.515,208.9v56.913H187.143
		z"/>
	<path fill="#FFFFFF" d="M270.548,237.416l17.146-1.667c1.031,5.756,3.125,9.982,6.28,12.681c3.155,2.699,7.411,4.049,12.77,4.049
		c5.675,0,9.952-1.2,12.829-3.603c2.877-2.4,4.316-5.209,4.316-8.424c0-2.063-0.605-3.819-1.816-5.269
		c-1.211-1.448-3.324-2.708-6.34-3.78c-2.064-0.714-6.768-1.983-14.109-3.81c-9.445-2.342-16.073-5.219-19.883-8.633
		c-5.358-4.802-8.037-10.656-8.037-17.562c0-4.444,1.26-8.603,3.779-12.473c2.521-3.869,6.152-6.816,10.895-8.84
		c4.742-2.024,10.469-3.036,17.176-3.036c10.954,0,19.199,2.401,24.736,7.203c5.536,4.803,8.443,11.213,8.721,19.229l-17.621,0.774
		c-0.755-4.484-2.373-7.71-4.852-9.674c-2.481-1.965-6.202-2.947-11.163-2.947c-5.12,0-9.129,1.052-12.025,3.155
		c-1.866,1.35-2.798,3.155-2.798,5.418c0,2.063,0.872,3.83,2.619,5.298c2.223,1.866,7.62,3.811,16.193,5.834
		c8.572,2.024,14.912,4.118,19.02,6.281c4.108,2.163,7.323,5.119,9.645,8.87c2.322,3.751,3.482,8.385,3.482,13.9
		c0,5.001-1.389,9.685-4.166,14.05c-2.779,4.367-6.709,7.611-11.788,9.734c-5.081,2.122-11.411,3.185-18.991,3.185
		c-11.033,0-19.507-2.55-25.42-7.65C275.231,254.612,271.699,247.18,270.548,237.416z"/>
</g>
<path fill="#D8D8D8" stroke="#000000" d="M379.09,53.528"/>
<path fill="none" stroke="#FDFDFD" stroke-width="2" d="M381.421,72.759C293.185,115.38,103.302,108.164,55.08,75.09"/>
<path fill="none" stroke="#FDFDFD" stroke-width="2" d="M380.674,366.773c-88.237-42.621-278.12-35.405-326.342-2.331"/>
</svg>
